<?xml version="1.0" encoding="utf-8"?>
<!-- Generator: Adobe Illustrator 16.0.0, SVG Export Plug-In . SVG Version: 6.00 Build 0)  -->
<!DOCTYPE svg PUBLIC "-//W3C//DTD SVG 1.1//EN" "http://www.w3.org/Graphics/SVG/1.1/DTD/svg11.dtd">
<svg version="1.1" id="Layer_1" xmlns="http://www.w3.org/2000/svg" xmlns:xlink="http://www.w3.org/1999/xlink" x="0px" y="0px"
	 width="2592px" height="2592px" viewBox="864 0 2592 2592" enable-background="new 864 0 2592 2592" xml:space="preserve">
<circle fill="#FFFFFF" cx="2160" cy="1296" r="1296"/>
<g>
	<path fill="#012F71" d="M1325.503,1940.839c0-210.731,0-423.57,0-634.302c8.429-4.215,12.644,2.106,16.857,6.321
		c12.645,12.644,25.289,27.396,40.039,37.932c59.006,46.361,124.332,71.649,200.195,69.542c141.19,0,280.273,0,421.464,0
		c37.932,0,40.039,2.107,40.039,40.039c0,16.858,0,35.824,0,52.683c2.107,37.932,23.181,61.112,61.112,63.22
		c35.824,0,71.648,0,107.473,0c37.932,0,61.112-23.181,61.112-61.112c0-21.073,0-44.254,0-65.327
		c0-25.287,4.215-29.502,29.503-29.502c46.361,0,92.722,0,139.083,0c99.044,0,200.194,0,299.239,0
		c82.185,0,151.727-31.61,210.731-86.4c10.536-8.429,18.966-18.966,27.396-27.395c2.106-2.107,6.321-4.215,10.536-2.107
		c4.214,2.107,2.107,6.321,2.107,8.429c0,4.215,0,8.43,0,10.537c0,198.088-2.107,394.068,0,592.156
		c0,82.186-59.005,118.01-118.01,122.225c-4.215,0-10.537,0-14.751,0c-467.825,0-935.649,0-1403.474,0
		c-18.966,0-37.932-2.107-54.79-8.43c-40.039-14.751-69.542-40.039-73.756-86.4
		C1327.61,1945.054,1327.61,1942.946,1325.503,1940.839z"/>
	<path fill="#012F71" d="M1325.503,1184.313c0-105.366,0-212.839,0-318.205c4.214-25.288,12.644-48.469,33.717-65.327
		s46.361-29.502,73.756-29.502c4.215,0,8.43,0,12.645,0c476.253,0,950.399,0,1426.653,0c31.609,0,56.897,8.429,82.185,27.395
		c27.396,21.073,40.039,50.576,40.039,86.4c0,96.937,0,195.98,0,292.917c0,50.575-25.287,88.508-59.004,124.332
		c-52.684,54.79-118.01,84.292-195.98,86.399c-141.191,0-284.488,0-425.679,0c-37.932,0-37.932,0-37.932-40.039
		c0-16.858,0-35.824,0-52.683c-2.107-33.717-18.966-54.79-50.575-59.005c-42.146-6.322-86.4-6.322-128.547,0
		c-33.717,4.215-50.576,27.396-52.684,61.112c0,23.181,0,46.361,0,69.541c0,18.966-4.214,21.073-23.18,23.181
		c-25.288,0-50.576,0-73.756,0c-120.117,0-242.342,0-362.459,0c-103.259-2.107-181.229-46.361-236.02-132.761
		C1333.932,1230.673,1331.824,1207.492,1325.503,1184.313z"/>
	<path fill="#012F71" d="M2160,552.117c56.897,0,113.795,0,172.8,0c73.756,0,120.117,46.361,120.117,120.117
		c0,12.644,0,25.288,0,37.932c0,8.43-2.107,12.644-10.537,12.644c-25.287,0-48.468,0-73.756,0c-10.536,0-12.644-4.215-12.644-12.644
		c0-12.644,0-25.288,0-40.039s-6.322-21.073-21.073-21.073c-118.01,0-236.02,0-351.922,0c-14.752,0-21.073,8.43-21.073,23.181
		c0,12.644,0,25.288,0,37.932c0,8.43-2.107,12.644-12.644,12.644c-23.181,0-48.469,0-71.649,0c-6.321,0-12.644,0-12.644-8.429
		c0-23.181-2.107-48.469,2.107-71.649c10.536-54.79,56.897-88.507,113.795-90.614C2039.883,550.01,2098.888,552.117,2160,552.117z"
		/>
	<path fill="#012F71" d="M2090.458,1403.473c0-35.824,0-71.648,0-107.473c0-12.644,4.215-18.966,18.967-18.966
		c33.717,0,67.434,0,101.15,0c12.645,0,18.967,4.215,18.967,18.966c0,71.648,0,143.298,0,217.054
		c0,14.751-4.215,18.966-18.967,18.966c-33.717,0-65.326,0-99.043,0c-14.752,0-18.967-6.322-18.967-18.966
		C2090.458,1475.122,2090.458,1439.298,2090.458,1403.473z"/>
</g>
</svg>
