<?xml version="1.0" encoding="utf-8"?>
<!-- Generator: Adobe Illustrator 16.0.0, SVG Export Plug-In . SVG Version: 6.00 Build 0)  -->
<!DOCTYPE svg PUBLIC "-//W3C//DTD SVG 1.1//EN" "http://www.w3.org/Graphics/SVG/1.1/DTD/svg11.dtd">
<svg version="1.1" id="Layer_1" xmlns="http://www.w3.org/2000/svg" xmlns:xlink="http://www.w3.org/1999/xlink" x="0px" y="0px"
	 width="2592px" height="2592px" viewBox="864 0 2592 2592" enable-background="new 864 0 2592 2592" xml:space="preserve">
<circle fill="#FFFFFF" cx="2160" cy="1296" r="1296"/>
<g display="none">
	<path display="inline" fill="#214292" d="M1325.503,1940.839c0-210.731,0-423.57,0-634.302c8.429-4.215,12.644,2.106,16.857,6.321
		c12.645,12.644,25.289,27.396,40.039,37.932c59.006,46.361,124.332,71.649,200.195,69.542c141.19,0,280.273,0,421.464,0
		c37.932,0,40.039,2.107,40.039,40.039c0,16.858,0,35.824,0,52.683c2.107,37.932,23.181,61.112,61.112,63.22
		c35.824,0,71.648,0,107.473,0c37.932,0,61.112-23.181,61.112-61.112c0-21.073,0-44.254,0-65.327
		c0-25.287,4.215-29.502,29.503-29.502c46.361,0,92.722,0,139.083,0c99.044,0,200.194,0,299.239,0
		c82.185,0,151.727-31.61,210.731-86.4c10.536-8.429,18.966-18.966,27.396-27.395c2.106-2.107,6.321-4.215,10.536-2.107
		c4.214,2.107,2.107,6.321,2.107,8.429c0,4.215,0,8.43,0,10.537c0,198.088-2.107,394.068,0,592.156
		c0,82.186-59.005,118.01-118.01,122.225c-4.215,0-10.537,0-14.751,0c-467.825,0-935.649,0-1403.474,0
		c-18.966,0-37.932-2.107-54.79-8.43c-40.039-14.751-69.542-40.039-73.756-86.4
		C1327.61,1945.054,1327.61,1942.946,1325.503,1940.839z"/>
	<path display="inline" fill="#214292" d="M1325.503,1184.313c0-105.366,0-212.839,0-318.205
		c4.214-25.288,12.644-48.469,33.717-65.327s46.361-29.502,73.756-29.502c4.215,0,8.43,0,12.645,0c476.253,0,950.399,0,1426.653,0
		c31.609,0,56.897,8.429,82.185,27.395c27.396,21.073,40.039,50.576,40.039,86.4c0,96.937,0,195.98,0,292.917
		c0,50.575-25.287,88.508-59.004,124.332c-52.684,54.79-118.01,84.292-195.98,86.399c-141.191,0-284.488,0-425.679,0
		c-37.932,0-37.932,0-37.932-40.039c0-16.858,0-35.824,0-52.683c-2.107-33.717-18.966-54.79-50.575-59.005
		c-42.146-6.322-86.4-6.322-128.547,0c-33.717,4.215-50.576,27.396-52.684,61.112c0,23.181,0,46.361,0,69.541
		c0,18.966-4.214,21.073-23.18,23.181c-25.288,0-50.576,0-73.756,0c-120.117,0-242.342,0-362.459,0
		c-103.259-2.107-181.229-46.361-236.02-132.761C1333.932,1230.673,1331.824,1207.492,1325.503,1184.313z"/>
	<path display="inline" fill="#214292" d="M2160,552.117c56.897,0,113.795,0,172.8,0c73.756,0,120.117,46.361,120.117,120.117
		c0,12.644,0,25.288,0,37.932c0,8.43-2.107,12.644-10.537,12.644c-25.287,0-48.468,0-73.756,0c-10.536,0-12.644-4.215-12.644-12.644
		c0-12.644,0-25.288,0-40.039s-6.322-21.073-21.073-21.073c-118.01,0-236.02,0-351.922,0c-14.752,0-21.073,8.43-21.073,23.181
		c0,12.644,0,25.288,0,37.932c0,8.43-2.107,12.644-12.644,12.644c-23.181,0-48.469,0-71.649,0c-6.321,0-12.644,0-12.644-8.429
		c0-23.181-2.107-48.469,2.107-71.649c10.536-54.79,56.897-88.507,113.795-90.614C2039.883,550.01,2098.888,552.117,2160,552.117z"
		/>
	<path display="inline" fill="#214292" d="M2090.458,1403.473c0-35.824,0-71.648,0-107.473c0-12.644,4.215-18.966,18.967-18.966
		c33.717,0,67.434,0,101.15,0c12.645,0,18.967,4.215,18.967,18.966c0,71.648,0,143.298,0,217.054
		c0,14.751-4.215,18.966-18.967,18.966c-33.717,0-65.326,0-99.043,0c-14.752,0-18.967-6.322-18.967-18.966
		C2090.458,1475.122,2090.458,1439.298,2090.458,1403.473z"/>
</g>
<g>
	<path fill="#00A25D" d="M2326.478,984.117c2.107-14.751,4.215-29.503,4.215-42.146c2.107-46.361,4.215-92.722,6.322-141.19
		c2.107-63.22-10.537-122.224-40.039-179.122c-31.609-63.219-77.971-109.58-151.727-122.224
		c-29.503-4.215-56.898-2.107-84.293,10.536c-4.215,2.107-10.537,10.537-10.537,16.858c2.107,67.435,2.107,134.868,4.215,202.303
		c2.107,37.932,0,73.756-21.072,107.473c-21.074,35.825-42.146,73.757-63.22,109.581c-37.933,61.112-73.757,124.332-111.688,185.443
		c-18.966,29.503-27.395,61.112-27.395,96.937c2.107,244.449,2.107,491.005,2.107,735.454c0,6.322,0,10.537,0,16.858
		c4.215,0,6.321,0,10.536,0c248.663,0,495.22,0,743.884,0c16.857,0,33.717-6.321,48.468-12.644
		c31.61-16.858,54.79-44.254,71.649-77.971c23.18-44.254,25.287-86.4-2.107-128.547c-4.215-8.429-2.107-12.644,6.321-14.751
		c16.858-6.321,33.718-12.644,48.469-23.181c46.36-31.609,82.185-67.434,69.542-128.546c-4.215-16.858-12.645-33.717-21.074-50.575
		c-4.214-8.43-10.536-16.859-18.965-25.288c29.502-14.751,56.896-27.396,80.078-50.575c48.468-52.684,44.253-126.439-6.322-177.016
		c-12.645-12.644-25.288-23.18-37.932-35.824c2.107-2.107,2.107-4.215,2.107-4.215c4.214-4.214,6.321-8.429,10.536-12.644
		c33.717-33.717,52.683-71.648,48.468-122.225c-4.215-40.039-18.965-75.863-54.79-99.044
		c-29.503-21.072-65.327-29.502-101.151-29.502c-56.897,0-115.902,0-172.8,0C2484.526,984.117,2406.556,984.117,2326.478,984.117z
		 M1414.01,2094.674c107.474,0,214.946,0,320.313,0c0-322.42,0-642.732,0-963.045c-107.474,0-214.946,0-320.313,0
		C1414.01,1454.049,1414.01,1772.254,1414.01,2094.674z"/>
	<path fill="#00A25D" d="M2326.478,984.117c80.078,0,155.942,0,233.912,0c56.898,0,115.903,0,172.801,0
		c35.824,0,71.648,8.43,101.151,29.502c33.717,25.288,48.468,59.006,54.79,99.045c6.322,50.575-12.645,88.507-48.469,122.224
		c-4.215,4.215-8.429,8.43-10.536,12.644c0,0,0,2.107-2.107,4.215c12.644,10.537,25.288,23.181,37.932,35.824
		c50.575,48.469,56.897,122.225,6.322,177.016c-21.073,23.18-50.575,35.824-80.078,50.575c6.321,8.429,12.644,16.858,18.966,25.288
		c8.43,16.858,16.858,33.717,21.073,50.575c12.644,61.112-25.288,99.044-69.542,128.546c-14.751,10.537-31.609,14.752-48.468,23.181
		c-6.322,4.215-10.537,6.322-6.322,14.751c27.396,42.146,25.288,84.293,2.107,128.547c-16.858,33.717-37.932,59.005-71.649,77.971
		c-14.751,8.43-33.717,12.644-48.468,12.644c-248.663,0-495.22,0-743.883,0c-2.107,0-6.322,0-10.537,0c0-6.322,0-10.536,0-16.858
		c0-244.449,0-491.005-2.106-735.454c0-35.824,8.429-67.434,27.395-96.937c37.932-61.112,73.756-122.224,111.688-185.443
		c21.073-35.824,42.146-73.756,63.22-109.581c21.073-33.717,21.073-69.541,21.073-107.473
		c-2.107-67.435-4.215-134.868-4.215-202.303c0-6.321,4.215-12.644,10.537-16.858c27.395-12.644,54.79-14.751,84.293-10.537
		c73.756,10.537,120.116,59.006,151.727,122.225c29.502,56.897,42.146,115.902,40.039,179.122
		c-2.107,46.361-4.215,92.722-6.322,141.19C2330.692,954.614,2328.585,967.259,2326.478,984.117z"/>
	<path fill="#00A25D" d="M1414.01,2094.674c0-320.313,0-640.625,0-963.045c107.474,0,212.839,0,320.313,0
		c0,320.313,0,640.625,0,963.045C1628.956,2094.674,1521.483,2094.674,1414.01,2094.674z"/>
</g>
</svg>
