<?xml version="1.0" encoding="utf-8"?>
<!-- Generator: Adobe Illustrator 16.0.0, SVG Export Plug-In . SVG Version: 6.00 Build 0)  -->
<!DOCTYPE svg PUBLIC "-//W3C//DTD SVG 1.1//EN" "http://www.w3.org/Graphics/SVG/1.1/DTD/svg11.dtd">
<svg version="1.1" id="Layer_1" xmlns="http://www.w3.org/2000/svg" xmlns:xlink="http://www.w3.org/1999/xlink" x="0px" y="0px"
	 width="50px" height="50px" viewBox="0 0 50 50" enable-background="new 0 0 50 50" xml:space="preserve">
<g>
	<path fill="#FFFFFF" d="M49.283,19.649c-0.208,0.176-0.428,0.342-0.623,0.532c-3.661,3.562-7.312,7.134-10.985,10.682
		c-0.382,0.369-0.471,0.699-0.382,1.215c0.913,5.211,1.799,10.431,2.691,15.647c0.015,0.078,0.017,0.159,0.031,0.298
		c-0.237-0.113-0.422-0.197-0.603-0.291c-4.623-2.43-9.247-4.858-13.864-7.3c-0.354-0.188-0.625-0.201-0.988-0.01
		c-4.601,2.437-9.21,4.854-13.818,7.277c-0.196,0.103-0.394,0.202-0.686,0.354c0.154-0.928,0.289-1.767,0.432-2.603
		c0.777-4.52,1.551-9.039,2.342-13.555c0.071-0.405-0.035-0.661-0.324-0.942c-3.753-3.64-7.494-7.292-11.24-10.94
		c-0.135-0.132-0.289-0.245-0.552-0.464c0.871-0.133,1.586-0.247,2.304-0.35c4.624-0.67,9.248-1.343,13.875-1.997
		c0.475-0.067,0.737-0.253,0.954-0.696c2.292-4.693,4.611-9.374,6.923-14.058c0.074-0.15,0.159-0.294,0.273-0.504
		c0.118,0.214,0.211,0.37,0.291,0.532c2.321,4.699,4.642,9.397,6.95,14.103c0.175,0.358,0.378,0.54,0.792,0.599
		c4.865,0.689,9.728,1.402,14.591,2.108c0.512,0.074,1.021,0.15,1.532,0.227C49.229,19.56,49.256,19.605,49.283,19.649z
		 M10.675,47.198c0.271-0.14,0.424-0.216,0.574-0.294c4.41-2.319,8.823-4.63,13.222-6.967c0.437-0.232,0.749-0.214,1.176,0.013
		c4.385,2.326,8.783,4.629,13.178,6.939c0.162,0.085,0.331,0.164,0.577,0.286c-0.038-0.273-0.059-0.473-0.093-0.67
		c-0.848-4.927-1.691-9.855-2.552-14.78c-0.071-0.407,0.042-0.661,0.329-0.938c3.581-3.472,7.147-6.957,10.725-10.432
		c0.143-0.139,0.343-0.215,0.519-0.321c-0.048-0.06-0.093-0.12-0.141-0.181c-0.063-0.016-0.122-0.037-0.185-0.045
		c-5.069-0.735-10.137-1.472-15.206-2.195c-0.393-0.056-0.628-0.196-0.813-0.573c-2.221-4.537-4.463-9.063-6.701-13.592
		c-0.065-0.131-0.141-0.256-0.243-0.438c-0.113,0.209-0.196,0.354-0.27,0.504c-2.236,4.53-4.474,9.059-6.7,13.593
		c-0.144,0.294-0.316,0.444-0.644,0.491c-4.353,0.622-8.704,1.254-13.056,1.885c-0.826,0.12-1.652,0.244-2.478,0.366
		c-0.027,0.052-0.054,0.104-0.081,0.155c0.166,0.122,0.348,0.227,0.494,0.37c3.575,3.477,7.143,6.962,10.723,10.433
		c0.277,0.269,0.378,0.51,0.31,0.896c-0.651,3.702-1.283,7.407-1.918,11.112C11.177,44.237,10.936,45.662,10.675,47.198z"/>
	<path fill-rule="evenodd" clip-rule="evenodd" fill="#FFFFFF" d="M10.675,47.198c0.261-1.536,0.502-2.961,0.747-4.383
		c0.636-3.705,1.268-7.41,1.918-11.112c0.068-0.387-0.033-0.628-0.31-0.896c-3.58-3.471-7.148-6.956-10.723-10.433
		c-0.146-0.143-0.328-0.248-0.494-0.37c0.027-0.051,0.054-0.103,0.081-0.155c0.826-0.123,1.652-0.247,2.478-0.366
		c4.352-0.631,8.703-1.264,13.056-1.885c0.328-0.047,0.5-0.197,0.644-0.491c2.226-4.534,4.464-9.063,6.7-13.593
		c0.074-0.149,0.157-0.294,0.27-0.504c0.102,0.183,0.178,0.308,0.243,0.438c2.238,4.529,4.48,9.056,6.701,13.592
		c0.185,0.377,0.42,0.518,0.813,0.573c5.069,0.723,10.137,1.46,15.206,2.195c0.063,0.009,0.122,0.03,0.185,0.045
		c0.048,0.061,0.093,0.121,0.141,0.181c-0.176,0.106-0.376,0.182-0.519,0.321c-3.577,3.475-7.144,6.96-10.725,10.432
		c-0.287,0.277-0.4,0.531-0.329,0.938c0.86,4.925,1.704,9.854,2.552,14.78c0.034,0.197,0.055,0.396,0.093,0.67
		c-0.246-0.122-0.415-0.201-0.577-0.286c-4.396-2.311-8.793-4.613-13.178-6.939c-0.427-0.227-0.739-0.245-1.176-0.013
		c-4.399,2.337-8.813,4.647-13.222,6.967C11.099,46.982,10.946,47.059,10.675,47.198z"/>
</g>
</svg>
